# xmcd
#
# Track frame offsets:
#	150
#	24155
#	46460
#	71801
#	96367
#	114052
#	131273
#	152785
#	169706
#	194587
#	219905
#	252119
#	276240
#
# Disc length: 3963 seconds
#
# Revision: 1
# Processed by: cddbd v1.5.1PL0 Copyright (c) Steve Scherf et al.
# Submitted via: audiograbber 1.81.03
#
DISCID=af0f790d
DTITLE=Amérindienne - White buffalo
DYEAR=1900
DGENRE=
TTITLE0=Ananou
TTITLE1=Axtu lemon sumix
TTITLE2=Flying condor
TTITLE3=Ley olay Ale Loya
TTITLE4=Remembrance
TTITLE5=Japanese spring
TTITLE6=Alegria
TTITLE7=Agua clara
TTITLE8=La nueva era
TTITLE9=Viva for ever
TTITLE10=Tor-cheney-nahana
TTITLE11=White buffalo
TTITLE12=Dawa
EXTD=
EXTT0=
EXTT1=
EXTT2=
EXTT3=
EXTT4=
EXTT5=
EXTT6=
EXTT7=
EXTT8=
EXTT9=
EXTT10=
EXTT11=
EXTT12=
PLAYORDER=
